<?xml version="1.0" encoding="iso-8859-1"?>
<!-- Generator: Adobe Illustrator 16.0.0, SVG Export Plug-In . SVG Version: 6.00 Build 0)  -->
<!DOCTYPE svg PUBLIC "-//W3C//DTD SVG 1.1//EN" "http://www.w3.org/Graphics/SVG/1.1/DTD/svg11.dtd">
<svg version="1.1" id="Capa_1" xmlns="http://www.w3.org/2000/svg" xmlns:xlink="http://www.w3.org/1999/xlink" x="0px" y="0px"
	 width="582.675px" height="582.675px" viewBox="0 0 582.675 582.675" style="enable-background:new 0 0 582.675 582.675;"
	 xml:space="preserve">
<g>
	<g id="Layer_1_165_">
		<g>
			<path d="M539.325,12.75H137.7c-56.1,0-100.725,44.625-100.725,100.725c0,53.55,42.075,96.9,94.35,100.725L81.6,364.649
				l-48.45,7.65C14.025,376.125,0,392.7,0,413.1v51c0,19.125,12.75,35.7,31.875,39.525c2.55-51,45.9-91.8,98.175-91.8
				s95.625,42.074,98.175,93.074h63.75h12.75V277.95c0-20.4,16.575-38.25,38.25-38.25h87.976c20.399,0,38.25,16.575,38.25,38.25
				V413.1c47.175,5.101,84.149,42.075,87.975,90.525c15.3-6.375,25.5-20.4,25.5-38.25V214.2V87.975V53.55
				C580.125,30.6,562.274,12.75,539.325,12.75z M252.45,335.325L124.95,357l35.7-107.1h91.8V335.325z"/>
			<path d="M441.149,277.95c0-6.375-5.1-12.75-12.75-12.75h-87.975c-6.375,0-12.75,6.375-12.75,12.75v228.225h31.875
				c2.55-47.175,36.975-84.15,81.6-91.8V277.95L441.149,277.95z"/>
			<circle cx="128.775" cy="510" r="59.925"/>
			<circle cx="457.725" cy="510" r="59.925"/>
		</g>
	</g>
</g>
<g>
</g>
<g>
</g>
<g>
</g>
<g>
</g>
<g>
</g>
<g>
</g>
<g>
</g>
<g>
</g>
<g>
</g>
<g>
</g>
<g>
</g>
<g>
</g>
<g>
</g>
<g>
</g>
<g>
</g>
</svg>
