<svg id="Capa_1" enable-background="new 0 0 557.821 557.821" height="512" viewBox="0 0 557.821 557.821" width="512" xmlns="http://www.w3.org/2000/svg"><g><g><g><circle cx="291.44" cy="419.728" r="35.409"/></g><g><path d="m259.3 222.529h82.802v32.685h-82.802z"/></g><g><path d="m541.479 399.027h-48.728c7.378-11.289 11.685-24.758 11.685-39.222v-98.507c0-18.323-6.219-34.517-18.483-48.129l-84.932-94.274c-9.556-10.605-22.152-16.211-36.425-16.211h-315.569c-27.033 0-49.027 21.994-49.027 49.028v230.973c0 27.034 21.994 49.027 49.027 49.027h16.343v-218.989c0-18.022 14.662-32.685 32.685-32.685h55.564c18.022 0 32.685 14.662 32.685 32.685v218.988h38.12c-.695-3.894-1.078-7.893-1.078-11.984 0-37.546 30.547-68.093 68.093-68.093 37.547 0 68.093 30.547 68.093 68.093 0 4.09-.382 8.091-1.078 11.984h183.023c9.025 0 16.342-7.317 16.342-16.342s-7.315-16.342-16.34-16.342zm-166.693-127.47c0 9.025-7.317 16.342-16.342 16.342h-115.487c-9.025 0-16.342-7.317-16.342-16.342v-65.37c0-9.025 7.317-16.342 16.342-16.342h115.486c9.025 0 16.342 7.317 16.342 16.342v65.37z"/></g><g><path d="m149.261 338.561c-9.025 0-16.342-7.317-16.342-16.342s7.317-16.342 16.342-16.342h4.358v-93.152h-55.568l.003 218.988h55.564v-93.152z"/></g></g></g></svg>