<svg id="Layer_1" enable-background="new 0 0 510 510" height="512" viewBox="0 0 510 510" width="512" xmlns="http://www.w3.org/2000/svg"><g><path d="m510 73.523-150.354 55.13c.225-2.866.354-5.75.354-8.653 0-57.897-47.103-105-105-105s-105 47.103-105 105c0 2.904.129 5.787.354 8.653l-150.354-55.13v361.7l152.159 59.777h205.682l152.159-59.776zm-30 231.771c-25.504-2.899-54.034 5.275-81.992 23.792-12.481 8.265-23.957 17.689-35.056 26.803-.99.813-1.97 1.616-2.952 2.421v-197.833l120-44zm-300-101.131c20.821 30.129 46.935 52.796 59.269 62.658-2.991 10.34-13.925 26.211-25.543 36.096-5.012 4.265-10.492 8.166-16.295 12.297-5.804 4.132-11.731 8.364-17.432 13.138v-124.189zm12.462 153.453c6.347-6.557 14.129-12.097 22.368-17.963 6.066-4.318 12.339-8.783 18.337-13.887 9.804-8.341 33.167-33.343 36.494-58.094 11.835-9.362 38.895-32.478 60.339-63.509v176.924c-1.075.708-2.148 1.419-3.238 2.104-32.077 20.157-70.501 29.218-108.209 25.52-7.294-.717-31.533-4.183-37.184-18.716-4.008-10.31 2.683-23.691 11.093-32.379zm62.538-312.616c41.355 0 75 33.645 75 75 0 53.288-53.521 103.064-75.013 120.9-21.508-17.802-74.987-67.454-74.987-120.9 0-41.355 33.645-75 75-75zm-121.46 109.441c-20.776 7.274-39.698 19.752-54.393 36.274-6.449 7.25-11.866 14.975-17.104 22.444-4.687 6.684-9.114 12.996-14.052 18.7-3.869 4.47-10.255 10.864-17.99 14.933v-130.315zm-103.54 260.336v-135.993c14.378-3.8 28.444-13.165 40.671-27.289 5.939-6.86 11.02-14.104 15.933-21.11 4.968-7.085 9.661-13.776 14.958-19.731 12.841-14.437 29.879-24.863 48.438-29.958v281.224zm150 50.223v-36.095c9.813 5.015 21.795 8.305 35.623 9.663 6.484.636 12.982.951 19.477.951 32.972 0 65.745-8.13 94.901-23.577v49.058zm180-3.08v-65.329c7.589-5.708 14.865-11.667 21.991-17.518 10.997-9.03 21.384-17.561 32.581-24.976 13.924-9.222 39.992-23.086 65.428-18.515v79.194z"/><path d="m300 120c0-24.813-20.187-45-45-45s-45 20.187-45 45 20.187 45 45 45 45-20.187 45-45zm-60 0c0-8.271 6.729-15 15-15s15 6.729 15 15-6.729 15-15 15-15-6.729-15-15z"/></g></svg>