<svg id="filled_outline" height="512" viewBox="0 0 512 512" width="512" xmlns="http://www.w3.org/2000/svg" data-name="filled outline"><path d="m40 335.3v56.7h400v-160.609a31.391 31.391 0 0 0 -31.391-31.391h-266.029a62.606 62.606 0 0 0 -59.965 44.615l-10.615 35.385-6.958 5.219a62.6 62.6 0 0 0 -25.042 50.081z" fill="#70a165"/><path d="m424 204.035-13 29.233a212.034 212.034 0 0 1 -115 110.732v48h144v-160.609a31.374 31.374 0 0 0 -16-27.356z" fill="#3f5039"/><path d="m56 351.3a62.6 62.6 0 0 1 25.042-50.083l6.958-5.217 10.615-35.385a62.606 62.606 0 0 1 59.965-44.615h266.029a31.253 31.253 0 0 1 12.7 2.687 31.389 31.389 0 0 0 -28.7-18.687h-266.029a62.606 62.606 0 0 0 -59.965 44.615l-10.615 35.385-6.958 5.219a62.6 62.6 0 0 0 -25.042 50.081v56.7h16z" fill="#aad678"/><path d="m400 392a32 32 0 0 1 -64 0z" fill="#393e4f"/><path d="m480 240h16v208h-16z" fill="#b56b29"/><path d="m424 136v64h-224v-120z" fill="#c6ad81"/><path d="m424 128v32l-224-56v-40z" fill="#a08f6d"/><path d="m192 200h104v192h-104z" fill="#393e4f"/><circle cx="368" cy="392" fill="#475784" r="16"/><path d="m392 360h48a16 16 0 0 1 16 16 16 16 0 0 1 -16 16h-48a0 0 0 0 1 0 0v-32a0 0 0 0 1 0 0z" fill="#475784"/><path d="m192 360h112v32h-112z" fill="#603714"/><path d="m296 200h112v192h-112z" fill="#70a165"/><path d="m296 224h112v72h-112z" fill="#57704c"/><path d="m112 392h-72a16 16 0 0 1 -16-16 16 16 0 0 1 16-16h72z" fill="#b0c0ea"/><path d="m26.158 368a15.907 15.907 0 0 0 -2.158 8 16 16 0 0 0 16 16h72v-16h-72a15.98 15.98 0 0 1 -13.842-8z" fill="#475784"/><path d="m174.453 85.6 254.064 63.516a15.68 15.68 0 0 0 19.483-15.209 15.68 15.68 0 0 0 -11.483-15.107l-252.33-70.093a19.08 19.08 0 0 0 -24.187 18.384 19.081 19.081 0 0 0 14.453 18.509z" fill="#e0c999"/><path d="m184.187 59.113 252.33 70.092a15.677 15.677 0 0 1 10.6 9.918 15.7 15.7 0 0 0 -10.6-20.324l-252.33-70.092a19.08 19.08 0 0 0 -24.187 18.384 19.041 19.041 0 0 0 .727 5.177 19.09 19.09 0 0 1 23.46-13.155z" fill="#f4e0bd"/><path d="m264 136h8a32 32 0 0 1 32 32 0 0 0 0 1 0 0h-72a0 0 0 0 1 0 0 32 32 0 0 1 32-32z" fill="#a08f6d"/><path d="m160 288h-56l9.621-33.672a30.785 30.785 0 0 1 29.6-22.328h16.779z" fill="#b0c0ea"/><path d="m328 232h48v48h-48z" fill="#b0c0ea"/><g fill="#475784"><path d="m320 312h24v16h-24z"/><path d="m144 312h24v16h-24z"/><path d="m168.026 168h31.974a0 0 0 0 1 0 0v32a0 0 0 0 1 0 0h-48a0 0 0 0 1 0 0v-15.974a16.026 16.026 0 0 1 16.026-16.026z"/></g><path d="m256 240h16v208h-16z" fill="#b56b29"/><path d="m256 240h240l-72-40h-224z" fill="#f4e0bd"/><path d="m324.819 240h171.181l-72-40h-224a214.748 214.748 0 0 0 124.819 40z" fill="#e0c999"/><path d="m112 376h80v16h-80z" fill="#57704c"/><path d="m296 376h112v16h-112z" fill="#57704c"/><circle cx="112" cy="392" fill="#393e4f" r="32"/><circle cx="112" cy="392" fill="#475784" r="16"/><path d="m492.24 233.216-60.24-37.65v-37.981c.124 0 .249.012.373.012a23.686 23.686 0 0 0 6.285-46.506l-252.33-70.091a27.08 27.08 0 1 0 -13.816 52.363l19.488 4.871v61.766h-23.974a24.052 24.052 0 0 0 -24.026 24.025v7.975h-1.42a70.605 70.605 0 0 0 -67.627 50.316l-9.859 32.864-4.852 3.638a70.945 70.945 0 0 0 -28.242 56.482v18.074a24 24 0 0 0 8 46.626h32.805a40 40 0 0 0 78.39 0h104.805v48h16v-48h56.805a40 40 0 0 0 78.39 0h32.805a24 24 0 0 0 8-46.624v-105.376h32v200h16v-208h-.021a7.982 7.982 0 0 0 -3.739-6.784zm-315.847-155.376a11.085 11.085 0 0 1 2.658-21.84 11.209 11.209 0 0 1 3 .411l252.33 70.092a7.68 7.68 0 0 1 -3.918 14.85l-254.07-63.512zm239.607 76.394v37.766h-208v-89.766zm-80 93.766h32v24h-32zm-8 40h48a8 8 0 0 0 8-8v-32h16v136h-96v-136h16v32a8 8 0 0 0 8 8zm-40 64h-16v-104h16zm-32 0h-56v-142.566l56 35zm-96-167.975a8.036 8.036 0 0 1 8.026-8.025h23.974v16h-32zm-128 191.975a8.009 8.009 0 0 1 8-8h40.022a39.841 39.841 0 0 0 -7.217 16h-32.805a8.009 8.009 0 0 1 -8-8zm80 40a24 24 0 1 1 24-24 24.028 24.028 0 0 1 -24 24zm0-64h-64v-16.7a54.866 54.866 0 0 1 21.842-43.684l6.958-5.216a8 8 0 0 0 2.863-4.1l10.615-35.385a54.269 54.269 0 0 1 52.302-38.915h41.42v176h-32.8a40.068 40.068 0 0 0 -39.2-32zm88 32v-16h56v16zm72-16h16v16h-16zm96 48a24.039 24.039 0 0 1 -22.624-16h45.248a24.039 24.039 0 0 1 -22.624 16zm72-32h-24v-16h24a8 8 0 0 1 0 16zm-8-32h-16v-104h16zm-165.706-120-38.4-24h193.81l38.4 24z"/><path d="m232 176h72a8 8 0 0 0 8-8 40.045 40.045 0 0 0 -40-40h-8a40.045 40.045 0 0 0 -40 40 8 8 0 0 0 8 8zm32-32h8a24.042 24.042 0 0 1 22.629 16h-53.258a24.042 24.042 0 0 1 22.629-16z"/><path d="m168 288v-56a8 8 0 0 0 -8-8h-16.779a38.949 38.949 0 0 0 -37.293 28.13l-9.62 33.67a8 8 0 0 0 7.692 10.2h56a8 8 0 0 0 8-8zm-16-8h-37.394l6.707-23.475a22.882 22.882 0 0 1 21.908-16.525h8.779z"/><path d="m320 312h24v16h-24z"/><path d="m144 312h24v16h-24z"/></svg>